Coordinates
version=1
nRows=13
nColumns=36
inDegrees=yes

Units are S.I. units (second, meters, Newtons, ...)
If the header above contains a line with 'inDegrees', this indicates whether rotational values are in degrees (yes) or radians (no).

endheader
time	pelvis_tilt	pelvis_list	pelvis_rotation	pelvis_tx	pelvis_ty	pelvis_tz	hip_flexion_r	hip_adduction_r	hip_rotation_r	knee_angle_r	knee_angle_r_beta	ankle_angle_r	subtalar_angle_r	mtp_angle_r	hip_flexion_l	hip_adduction_l	hip_rotation_l	knee_angle_l	knee_angle_l_beta	ankle_angle_l	subtalar_angle_l	mtp_angle_l	lumbar_extension	lumbar_bending	lumbar_rotation	arm_flex_r	arm_add_r	arm_rot_r	elbow_flex_r	pro_sup_r	arm_flex_l	arm_add_l	arm_rot_l	elbow_flex_l	pro_sup_l
      4.46250000	      1.22166553	     -0.32354269	      2.40210404	      0.37753877	      0.93038502	     -0.02235172	     -6.15776813	     -2.47996786	     -1.29570724	      2.51984695	      0.04397963	      6.83948978	    -21.03977212	     -7.49999987	     -3.10371902	     -5.72262273	      2.70104594	      0.78858854	      0.01376347	      6.69160927	     -6.24720092	     -7.49999987	     -1.38792524	      0.70940934	      0.41966941	      1.35711068	     -4.20881636	     17.20984553	     17.27792147	     69.36586826	    361.12452732	     -3.69121673	    375.49570446	     13.47284061	     52.13572907
      4.46666670	      1.20733315	     -0.31297653	      2.40487555	      0.37656024	      0.93272623	     -0.02224618	     -6.06771846	     -2.47766488	     -1.24195832	      2.59116104	      0.04522429	      6.74932277	    -21.16135403	     -7.49999987	     -3.07119677	     -5.70486398	      2.55125190	      0.81447325	      0.01421524	      6.67172641	     -6.04378641	     -7.49999987	     -1.36682152	      0.71785687	      0.31235938	      1.37001824	     -4.04114355	     18.12670979	     17.11219603	     68.17182361	    360.92339478	     -3.20969712	    370.55690772	     13.28859757	     54.86574371
      4.47083330	      1.07173595	     -0.28054792	      2.46420176	      0.37624526	      0.93369095	     -0.02239403	     -5.91118655	     -2.50914802	     -1.42920155	      2.54726014	      0.04445808	      6.83126759	    -20.70507959	     -7.49999987	     -2.88660463	     -5.65131935	      2.55089232	      0.83374228	      0.01455155	      6.39812208	     -6.18143815	     -7.49999987	     -1.12965043	      0.66930369	      0.28359308	      1.11115489	     -4.05338569	     19.11694170	     17.41140022	     68.28405169	    360.75611342	     -3.41943212	    372.00051524	     13.34977692	     57.82078168
      4.47500000	      1.07569793	     -0.25979815	      2.45248752	      0.37469979	      0.93066655	     -0.02315472	     -5.84209254	     -2.53638611	     -1.46413524	      2.57527238	      0.04494698	      6.80902846	    -20.60367942	     -7.49999987	     -2.84053799	     -5.60125622	      2.35255927	      0.84463421	      0.01474165	      6.37848383	     -5.94666837	     -7.49999987	     -1.20449259	      0.68556539	      0.29487670	      1.00919424	     -4.00751462	     18.94101995	     17.73114868	     68.84179941	    360.68001535	     -3.53465084	    374.24135276	     13.67979869	     51.14718844
      4.47916670	      1.36257081	     -0.20490556	      2.60261590	      0.37371018	      0.93029225	     -0.02454656	     -6.13819491	     -2.59343999	     -1.79859414	      2.52489173	      0.04406767	      6.81252119	    -20.33136659	     -7.49999987	     -3.04118460	     -5.51140318	      2.57076870	      0.86781608	      0.01514625	      6.21765698	     -6.18651218	     -7.49999987	     -1.71580448	      0.63591283	      0.00225062	      1.16223481	     -4.06238719	     20.16074938	     18.10957370	     67.01012099	    360.55461109	     -3.31152134	    370.33887108	     13.99771572	     54.63699042
      4.48333330	      1.03016960	     -0.20906859	      2.49951578	      0.37344615	      0.93200963	     -0.02428093	     -5.63089557	     -2.64568085	     -1.59079097	      2.65800423	      0.04639093	      6.60719410	    -20.59796118	     -7.49999987	     -2.62913437	     -5.45395079	      2.29200688	      0.89058224	      0.01554359	      6.15790264	     -6.06812940	     -7.49999987	     -1.16140806	      0.65051721	      0.18588503	      0.98014924	     -4.17146372	     21.05777910	     18.26704261	     66.49003539	    360.49305825	     -3.37603015	    370.72602231	     13.77650785	     57.99608807
      4.48750000	      1.13390482	     -0.18418154	      2.50656886	      0.37263795	      0.93044411	     -0.02392856	     -5.65189228	     -2.68381749	     -1.70247348	      2.70685938	      0.04724361	      6.70964810	    -20.38523359	     -7.49999987	     -2.66009029	     -5.40309622	      2.09386130	      0.92764856	      0.01619052	      6.21843409	     -5.83870650	     -7.49999987	     -1.37640383	      0.67320594	      0.24766816	      0.92986721	     -4.19369981	     19.99425530	     18.69665056	     68.35863047	    360.49730598	     -3.61795259	    373.55014394	     14.23609196	     50.76990623
      4.49166670	      1.18218534	     -0.13307443	      2.57461149	      0.37241696	      0.93259717	     -0.02395720	     -5.64538343	     -2.75695508	     -1.80173122	      2.74405189	      0.04789274	      6.63093562	    -20.38294288	     -7.49999987	     -2.63877153	     -5.31987883	      2.19239831	      0.95386365	      0.01664806	      6.04028449	     -5.96890651	     -7.49999987	     -1.43939730	      0.57438877	      0.13804705	      1.01387524	     -4.33303226	     21.27502288	     19.00299285	     67.39483648	    360.37023179	     -3.63059328	    371.28552502	     14.39300852	     54.97380590
      4.49583330	      1.23393936	     -0.09663173	      2.61664559	      0.37161142	      0.93139055	     -0.02440388	     -5.63601027	     -2.82627113	     -1.97887592	      2.79095641	      0.04871138	      6.88779151	    -19.93319792	     -7.49999987	     -2.61328159	     -5.25650744	      2.18680050	      0.98679054	      0.01722274	      6.05045536	     -6.02980365	     -7.49999987	     -1.57171832	      0.55396133	      0.21791360	      1.04110769	     -4.50915876	     21.67758925	     19.36146049	     66.38554428	    360.39708209	     -3.74607837	    370.95121032	     14.64395836	     56.71529882
      4.50000000	      1.35869720	     -0.10971596	      2.59805989	      0.37183113	      0.93031076	     -0.02320132	     -5.66757459	     -2.80966639	     -1.92657878	      2.87513122	      0.05018051	      6.80954567	    -20.02225267	     -7.49999987	     -2.67864560	     -5.28775277	      1.94236574	      1.01472203	      0.01771024	      6.13522878	     -5.63862296	     -7.49999987	     -1.79675761	      0.55594499	      0.37272845	      1.01937099	     -4.62415704	     21.04022117	     19.75730714	     67.60501166	    360.44467538	     -3.95953754	    372.83373840	     15.01729513	     51.60823793
      4.50416670	      1.40852543	     -0.11057784	      2.66230904	      0.37178435	      0.92707936	     -0.02348468	     -5.66856885	     -2.80360312	     -1.98647925	      2.94315027	      0.05136766	      6.94322768	    -20.00078216	     -7.49999987	     -2.65216108	     -5.29619046	      1.93953703	      1.05290972	      0.01837674	      6.24888949	     -5.55014549	     -7.49999987	     -1.80984582	      0.53241764	      0.33400313	      0.97192107	     -4.85894629	     21.53681533	     20.22120727	     66.94855257	    360.28027613	     -4.06782909	    371.80869291	     15.30663730	     53.68974629
      4.50833330	      1.68077233	     -0.09763142	      2.74462034	      0.37095641	      0.92875895	     -0.02321534	     -5.93152274	     -2.79193390	     -2.09040392	      2.97468361	      0.05191802	      7.01981744	    -19.94932485	     -7.49999987	     -2.88064381	     -5.32203122	      2.07301687	      1.05218040	      0.01836401	      6.19225924	     -5.70489587	     -7.49999987	     -2.24090171	      0.46278221	      0.11809949	      1.18292019	     -5.12883303	     22.68349368	     20.67397458	     65.47652137	    360.12616476	     -3.96924057	    368.05170453	     15.77654525	     57.12432895
      4.51250000	      1.44704362	     -0.12612879	      2.72907750	      0.37017096	      0.93087311	     -0.02181403	     -5.55453965	     -2.75022551	     -1.90966136	      3.15619125	      0.05508593	      7.00039809	    -20.20706650	     -7.49999987	     -2.57366778	     -5.39045705	      1.91487175	      1.10637838	      0.01930995	      6.33962845	     -5.43528054	     -7.49999987	     -1.86424637	      0.41992156	      0.34287223	      0.93455705	     -5.23744699	     21.76963138	     20.94431598	     67.42721875	    360.13883344	     -4.53472822	    373.08109557	     16.08669908	     49.93866554
